<svg width="27" height="27" viewBox="0 0 27 27" fill="none" xmlns="http://www.w3.org/2000/svg">
<rect width="27" height="27" rx="13.5" transform="matrix(-1 0 0 1 27 0)" fill="#ECECEC"/>
<path d="M15.6288 8.67861H11.1493L10.778 10.6824L14.8203 10.6871C16.8111 10.6871 17.3998 11.385 17.383 12.5437C17.3743 13.1372 17.1079 14.1406 16.9928 14.4658C16.686 15.3329 16.0559 16.3224 13.693 16.3185L9.76366 16.3169L9.3916 18.3215H13.8612C15.4377 18.3215 16.1087 18.1444 16.8181 17.8275C18.3922 17.1257 19.3288 15.6255 19.7039 13.6678C20.2628 10.7525 19.5669 8.67861 15.6288 8.67861Z" fill="black"/>
<path d="M9.37489 12.4519C8.1909 12.4519 8.02121 13.2237 7.90918 13.69C7.76245 14.3008 7.71436 14.5482 7.71436 14.5482H12.3426C13.5266 14.5482 13.6963 13.7763 13.8083 13.3101C13.9551 12.6992 14.0032 12.4519 14.0032 12.4519H9.37489Z" fill="black"/>
</svg>
