<svg width="30" height="30" viewBox="0 0 30 30" fill="none" xmlns="http://www.w3.org/2000/svg">
<rect width="30" height="30" rx="6" fill="#008DE4"/>
<path d="M16.7828 9.59998H12.6448C12.0963 9.59998 11.6258 9.99128 11.5259 10.5306C11.3964 11.2297 11.9325 11.8751 12.6435 11.8759L15.865 11.8796C18.1246 11.8796 18.7928 12.6718 18.7737 13.9869C18.7639 14.6606 18.4615 15.7994 18.3309 16.1686C17.9826 17.1528 17.2674 18.2758 14.5855 18.2714L11.0718 18.27C10.5235 18.2697 10.0531 18.6607 9.95301 19.1998C9.8232 19.8992 10.36 20.5448 11.0713 20.5448H14.7764C16.5658 20.5448 17.3274 20.3439 18.1326 19.9842C19.9192 19.1876 20.9823 17.4849 21.408 15.2628C22.0423 11.9538 21.2525 9.59998 16.7828 9.59998Z" fill="white"/>
<path d="M9.68478 13.8828C8.34094 13.8828 8.14834 14.7588 8.02118 15.2881C7.90024 15.7915 8.28115 16.2621 8.79894 16.2621H13.0532C14.3971 16.2621 14.5897 15.3861 14.7168 14.8569C14.8378 14.3534 14.4569 13.8828 13.9391 13.8828H9.68478Z" fill="white"/>
</svg>
