<svg width="28" height="28" viewBox="0 0 28 28" fill="none" xmlns="http://www.w3.org/2000/svg">
<circle cx="14" cy="14" r="13.75" fill="#EAF9F9" stroke="#EAF9F9" stroke-width="0.5"/>
<path d="M16.4299 8.39999H11.0923L10.65 10.7875L15.4664 10.7931C17.8385 10.7931 18.5399 11.6247 18.5199 13.0053C18.5096 13.7125 18.1921 14.908 18.055 15.2956C17.6895 16.3288 16.9387 17.5077 14.1233 17.5031L9.44136 17.5012L8.99805 19.8897H14.3236C16.2021 19.8897 17.0016 19.6787 17.8469 19.3011C19.7224 18.4649 20.8385 16.6774 21.2853 14.3447C21.9513 10.871 21.1221 8.39999 16.4299 8.39999Z" fill="#34BBA8"/>
<path d="M8.97856 12.896C7.56781 12.896 7.36563 13.8156 7.23214 14.3712C7.0573 15.099 7 15.3937 7 15.3937H12.5147C13.9254 15.3937 14.1276 14.4741 14.2611 13.9185C14.436 13.1907 14.4933 12.896 14.4933 12.896L8.97856 12.896Z" fill="#34BBA8"/>
</svg>
