<svg width="36" height="36" viewBox="0 0 36 36" fill="none" xmlns="http://www.w3.org/2000/svg">
<circle cx="18" cy="18" r="18" fill="url(#paint0_linear)"/>
<path d="M25.8934 17.0952L25.8884 17.0931L12.5422 11.5574C12.4299 11.5104 12.3078 11.492 12.1867 11.5038C12.0655 11.5156 11.9492 11.5572 11.8481 11.6249C11.7413 11.6949 11.6536 11.7904 11.5928 11.9027C11.532 12.015 11.5001 12.1407 11.5 12.2684V15.8087C11.5001 15.9833 11.561 16.1523 11.6724 16.2868C11.7837 16.4213 11.9385 16.5126 12.11 16.5452L19.3891 17.8912C19.4177 17.8966 19.4435 17.9118 19.462 17.9343C19.4806 17.9567 19.4908 17.9849 19.4908 18.014C19.4908 18.0431 19.4806 18.0713 19.462 18.0937C19.4435 18.1161 19.4177 18.1314 19.3891 18.1368L12.1103 19.4827C11.9389 19.5152 11.7841 19.6065 11.6727 19.7409C11.5613 19.8752 11.5002 20.0442 11.5 20.2187V23.7596C11.4999 23.8816 11.5301 24.0016 11.5879 24.109C11.6456 24.2164 11.7292 24.3078 11.8309 24.3749C11.9534 24.4563 12.0971 24.4998 12.2441 24.4999C12.3463 24.4998 12.4474 24.4793 12.5416 24.4396L25.8875 18.9356L25.8934 18.9327C26.0731 18.8555 26.2262 18.7274 26.3337 18.5641C26.4413 18.4008 26.4986 18.2095 26.4986 18.014C26.4986 17.8185 26.4413 17.6272 26.3337 17.4639C26.2262 17.3006 26.0731 17.1724 25.8934 17.0952Z" fill="white"/>
<defs>
<linearGradient id="paint0_linear" x1="-0.999958" y1="35.0527" x2="31.8203" y2="-3.55332" gradientUnits="userSpaceOnUse">
<stop stop-color="#6A67FB"/>
<stop offset="1" stop-color="#8D71FF"/>
</linearGradient>
</defs>
</svg>
