<svg width="28" height="28" viewBox="0 0 28 28" fill="none" xmlns="http://www.w3.org/2000/svg">
<circle cx="14" cy="14" r="13.75" fill="#F2F4FF" stroke="#F2F4FF" stroke-width="0.5"/>
<path d="M16.4303 8.39999H11.0928L10.6505 10.7875L15.4669 10.7931C17.839 10.7931 18.5404 11.6247 18.5204 13.0053C18.5101 13.7125 18.1926 14.908 18.0555 15.2956C17.6899 16.3288 16.9392 17.5077 14.1238 17.5031L9.44185 17.5012L8.99854 19.8897H14.3241C16.2026 19.8897 17.0021 19.6787 17.8474 19.3011C19.7229 18.4649 20.839 16.6774 21.2858 14.3447C21.9518 10.871 21.1226 8.39999 16.4303 8.39999Z" fill="#6C69FC"/>
<path d="M8.97856 12.896C7.56781 12.896 7.36563 13.8156 7.23214 14.3712C7.0573 15.099 7 15.3937 7 15.3937H12.5147C13.9254 15.3937 14.1276 14.4741 14.2611 13.9185C14.436 13.1907 14.4933 12.896 14.4933 12.896L8.97856 12.896Z" fill="#6C69FC"/>
</svg>
