<svg width="20" height="20" viewBox="0 0 20 20" fill="none" xmlns="http://www.w3.org/2000/svg">
<circle cx="10" cy="10" r="10" fill="#EAF9F9"/>
<path d="M11.7357 5.99999H7.92317L7.6072 7.70538L11.0475 7.70938C12.7419 7.70938 13.2429 8.30336 13.2286 9.28947C13.2212 9.79466 12.9945 10.6486 12.8965 10.9254C12.6354 11.6634 12.0991 12.5055 10.0881 12.5022L6.7439 12.5008L6.42725 14.2069H10.2312C11.573 14.2069 12.1441 14.0562 12.7479 13.7865C14.0875 13.1892 14.8847 11.9124 15.2039 10.2462C15.6796 7.76502 15.0873 5.99999 11.7357 5.99999Z" fill="#36BFAC"/>
<path d="M6.41326 9.21138C5.40558 9.21138 5.26116 9.86827 5.16581 10.2651C5.04093 10.785 5 10.9955 5 10.9955H8.93907C9.94675 10.9955 10.0912 10.3386 10.1865 9.94177C10.3114 9.42189 10.3523 9.21138 10.3523 9.21138H6.41326Z" fill="#36BFAC"/>
</svg>
